{"title":"The Lord of the Rings Complete Collection (1977)-(2012)","uid":6972542,"size":26697025000,"categoryP":"video","categoryS":"hd___movies","magnet":"?xt=urn:btih:a0e2e641fd3f48089dfa3f2f03204c849d550837&amp;dn=The+Lord+of+the+Rings+Complete+Collection+%281977%29-%282012%29&amp;tr=udp%3A%2F%2Ftracker.openbittorrent.com%3A80&amp;tr=udp%3A%2F%2Fopen.demonii.com%3A1337&amp;tr=udp%3A%2F%2Ftracker.coppersurfer.tk%3A6969&amp;tr=udp%3A%2F%2Fexodus.desync.com%3A6969","seeders":0,"leechers":3,"uploader":"KINGSNAKE69","files":29,"time":1327134712,"description":"Movies : Fantasy : HD 1080p / 1080i : English\n O.K.,This is the complete collection of the Lord of the Rings Series.\n The animated films 1977,78,and 80 are obviously not in (HD)I encoded them from original sources to keep the nastalgia and look of the times and I believe they turned out great considering the source files are over 30 yrs. old.{Please take the time to comment}The three main movies 2001,2002,2003 are all in 1080p from bluray sources,which is why I put the collection in this catagory(Thanx to the original uploaders).The two fan-film pre-quels from 2009,are downloaded from streaming sources and are in 720p,as well is the 2 min. trailer of the Dec.,2012 release of &quot;The Hobbit_An Unexpected Journey&quot;\n All movies are extended editions.\n All movies have english sub files include.\n Take the time to comment and\n PLEASE SEED,SEED,SEED and ENJOY!!!\n \n[ The Hobbit (Animated) (1977).mp4 ]\n \nFormat : MPEG-4\n Format profile : Base Media\n Codec ID : isom\n File size : 982 MiB\n Duration : 1h 17mn\n Overall bit rate mode : Variable\n Overall bit rate : 1 774 Kbps\n \nVideo\n ID : 1\n Format : AVC\n Format/Info : Advanced Video Codec\n Format profile : &lt;a class=&quot;__cf_email__&quot; href=&quot;/cdn-cgi/l/email-protection&quot; data-cfemail=&quot;4e062729260e027d607f&quot;&gt;[email&amp;#160;protected]&lt;/a&gt;&lt;script cf-hash='f9e31' type=&quot;text/javascript&quot;&gt;\n/* &lt;![CDATA[ */!function(){try{var t=&quot;currentScript&quot;in document?document.currentScript:function(){for(var t=document.getElementsByTagName(&quot;script&quot;),e=t.length;e--;)if(t[e].getAttribute(&quot;cf-hash&quot;))return t[e]}();if(t&amp;&amp;t.previousSibling){var e,r,n,i,c=t.previousSibling,a=c.getAttribute(&quot;data-cfemail&quot;);if(a){for(e=&quot;&quot;,r=parseInt(a.substr(0,2),16),n=2;a.length-n;n+=2)i=parseInt(a.substr(n,2),16)^r,e+=String.fromCharCode(i);e=document.createTextNode(e),c.parentNode.replaceChild(e,c)}}}catch(u){}}();/* ]]&gt; */&lt;/script&gt;\n Format settings, CABAC : Yes\n Format settings, ReFrames : 8 frames\n Codec ID : avc1\n Codec ID/Info : Advanced Video Coding\n Duration : 1h 17mn\n Bit rate : 1 549 Kbps\n Maximum bit rate : 7 299 Kbps\n Width : 720 pixels\n Height : 400 pixels\n Display aspect ratio : 16:9\n Frame rate mode : Constant\n Frame rate : 23.976 fps\n Color space : YUV\n Chroma subsampling : 4:2:0\n Bit depth : 8 bits\n Scan type : Progressive\n Bits/(Pixel*Frame) : 0.224\n Stream size : 858 MiB (87%)\n \nAudio\n ID : 2\n Format : AAC\n Format/Info : Advanced Audio Codec\n Format profile : LC\n Codec ID : 40\n Duration : 1h 17mn\n Bit rate mode : Variable\n Nominal bit rate : 221 Kbps\n Maximum bit rate : 248 Kbps\n Channel(s) : 1 channel\n Channel positions : Front: C\n Sampling rate : 48.0 KHz\n Compression mode : Lossy\n Language : English\n Material_Duration : 4644822\n Material_StreamSize : 128072536\n \n[ The Lord of the Rings (1978) (Animated).mp4 ]\n \nFormat : MPEG-4\n Format profile : Base Media\n Codec ID : isom\n File size : 2.57 GiB\n Duration : 2h 13mn\n Overall bit rate mode : Variable\n Overall bit rate : 2 760 Kbps\n \nVideo\n ID : 1\n Format : AVC\n Format/Info : Advanced Video Codec\n Format profile : &lt;a class=&quot;__cf_email__&quot; href=&quot;/cdn-cgi/l/email-protection&quot; data-cfemail=&quot;2e664749466e621d001f&quot;&gt;[email&amp;#160;protected]&lt;/a&gt;&lt;script cf-hash='f9e31' type=&quot;text/javascript&quot;&gt;\n/* &lt;![CDATA[ */!function(){try{var t=&quot;currentScript&quot;in document?document.currentScript:function(){for(var t=document.getElementsByTagName(&quot;script&quot;),e=t.length;e--;)if(t[e].getAttribute(&quot;cf-hash&quot;))return t[e]}();if(t&amp;&amp;t.previousSibling){var e,r,n,i,c=t.previousSibling,a=c.getAttribute(&quot;data-cfemail&quot;);if(a){for(e=&quot;&quot;,r=parseInt(a.substr(0,2),16),n=2;a.length-n;n+=2)i=parseInt(a.substr(n,2),16)^r,e+=String.fromCharCode(i);e=document.createTextNode(e),c.parentNode.replaceChild(e,c)}}}catch(u){}}();/* ]]&gt; */&lt;/script&gt;\n Format settings, CABAC : Yes\n Format settings, ReFrames : 8 frames\n Codec ID : avc1\n Codec ID/Info : Advanced Video Coding\n Duration : 2h 13mn\n Bit rate : 2 500 Kbps\n Maximum bit rate : 7 843 Kbps\n Width : 720 pixels\n Height : 400 pixels\n Display aspect ratio : 16:9\n Frame rate mode : Constant\n Frame rate : 23.976 fps\n Color space : YUV\n Chroma subsampling : 4:2:0\n Bit depth : 8 bits\n Scan type : Progressive\n Bits/(Pixel*Frame) : 0.362\n Stream size : 2.33 GiB (91%)\n \nAudio\n ID : 2\n Format : AAC\n Format/Info : Advanced Audio Codec\n Format profile : LC\n Codec ID : 40\n Duration : 2h 13mn\n Bit rate mode : Variable\n Nominal bit rate : 256 Kbps\n Maximum bit rate : 281 Kbps\n Channel(s) : 2 channels\n Channel positions : Front: L R\n Sampling rate : 48.0 KHz\n Compression mode : Lossy\n Language : English\n Material_Duration : 7991765\n Material_StreamSize : 255693788\n \n[ The Return of the King (1980) (Animated).mp4 ]\n \nFormat : MPEG-4\n Format profile : Base Media\n Codec ID : isom\n File size : 1.85 GiB\n Duration : 1h 37mn\n Overall bit rate mode : Variable\n Overall bit rate : 2 724 Kbps\n \nVideo\n ID : 1\n Format : AVC\n Format/Info : Advanced Video Codec\n Format profile : &lt;a class=&quot;__cf_email__&quot; href=&quot;/cdn-cgi/l/email-protection&quot; data-cfemail=&quot;632b0a040b232f504d52&quot;&gt;[email&amp;#160;protected]&lt;/a&gt;&lt;script cf-hash='f9e31' type=&quot;text/javascript&quot;&gt;\n/* &lt;![CDATA[ */!function(){try{var t=&quot;currentScript&quot;in document?document.currentScript:function(){for(var t=document.getElementsByTagName(&quot;script&quot;),e=t.length;e--;)if(t[e].getAttribute(&quot;cf-hash&quot;))return t[e]}();if(t&amp;&amp;t.previousSibling){var e,r,n,i,c=t.previousSibling,a=c.getAttribute(&quot;data-cfemail&quot;);if(a){for(e=&quot;&quot;,r=parseInt(a.substr(0,2),16),n=2;a.length-n;n+=2)i=parseInt(a.substr(n,2),16)^r,e+=String.fromCharCode(i);e=document.createTextNode(e),c.parentNode.replaceChild(e,c)}}}catch(u){}}();/* ]]&gt; */&lt;/script&gt;\n Format settings, CABAC : Yes\n Format settings, ReFrames : 8 frames\n Codec ID : avc1\n Codec ID/Info : Advanced Video Coding\n Duration : 1h 37mn\n Bit rate : 2 500 Kbps\n Maximum bit rate : 7 730 Kbps\n Width : 720 pixels\n Height : 400 pixels\n Display aspect ratio : 16:9\n Frame rate mode : Constant\n Frame rate : 23.976 fps\n Color space : YUV\n Chroma subsampling : 4:2:0\n Bit depth : 8 bits\n Scan type : Progressive\n Bits/(Pixel*Frame) : 0.362\n Stream size : 1.69 GiB (92%)\n \nAudio\n ID : 2\n Format : AAC\n Format/Info : Advanced Audio Codec\n Format profile : LC\n Codec ID : 40\n Duration : 1h 37mn\n Bit rate mode : Variable\n Nominal bit rate : 219 Kbps\n Maximum bit rate : 250 Kbps\n Channel(s) : 1 channel\n Channel positions : Front: C\n Sampling rate : 48.0 KHz\n Compression mode : Lossy\n Language : English\n Material_Duration : 5821398\n Material_StreamSize : 159418617\n \n[ The Fellowship of the Ring (2001).mp4 ]\n \nFormat : MPEG-4\n Format profile : Base Media\n Codec ID : isom\n File size : 5.60 GiB\n Duration : 3h 48mn\n Overall bit rate mode : Variable\n Overall bit rate : 3 516 Kbps\n \nVideo\n ID : 1\n Format : AVC\n Format/Info : Advanced Video Codec\n Format profile : &lt;a class=&quot;__cf_email__&quot; href=&quot;/cdn-cgi/l/email-protection&quot; data-cfemail=&quot;db93b2bcb39b97eff5eb&quot;&gt;[email&amp;#160;protected]&lt;/a&gt;&lt;script cf-hash='f9e31' type=&quot;text/javascript&quot;&gt;\n/* &lt;![CDATA[ */!function(){try{var t=&quot;currentScript&quot;in document?document.currentScript:function(){for(var t=document.getElementsByTagName(&quot;script&quot;),e=t.length;e--;)if(t[e].getAttribute(&quot;cf-hash&quot;))return t[e]}();if(t&amp;&amp;t.previousSibling){var e,r,n,i,c=t.previousSibling,a=c.getAttribute(&quot;data-cfemail&quot;);if(a){for(e=&quot;&quot;,r=parseInt(a.substr(0,2),16),n=2;a.length-n;n+=2)i=parseInt(a.substr(n,2),16)^r,e+=String.fromCharCode(i);e=document.createTextNode(e),c.parentNode.replaceChild(e,c)}}}catch(u){}}();/* ]]&gt; */&lt;/script&gt;\n Format settings, CABAC : Yes\n Format settings, ReFrames : 3 frames\n Codec ID : avc1\n Codec ID/Info : Advanced Video Coding\n Duration : 3h 48mn\n Bit rate mode : Variable\n Bit rate : 3 196 Kbps\n Maximum bit rate : 25.0 Mbps\n Width : 1 920 pixels\n Height : 800 pixels\n Display aspect ratio : 2.40:1\n Frame rate mode : Constant\n Frame rate : 23.976 fps\n Color space : YUV\n Chroma subsampling : 4:2:0\n Bit depth : 8 bits\n Scan type : Progressive\n Bits/(Pixel*Frame) : 0.087\n Stream size : 5.09 GiB (91%)\n \nAudio\n ID : 2\n Format : AAC\n Format/Info : Advanced Audio Codec\n Format profile : LC\n Codec ID : 40\n Duration : 3h 48mn\n Bit rate mode : Variable\n Bit rate : 317 Kbps\n Maximum bit rate : 336 Kbps\n Channel(s) : 6 channels\n Channel positions : Front: L C R, Side: L R, LFE\n Sampling rate : 48.0 KHz\n Compression mode : Lossy\n Stream size : 518 MiB (9%)\n \n[ The Two Towers (2002).mp4 ]\n \nFormat : MPEG-4\n Format profile : Base Media\n Codec ID : isom\n File size : 5.78 GiB\n Duration : 3h 55mn\n Overall bit rate mode : Variable\n Overall bit rate : 3 516 Kbps\n \nVideo\n ID : 1\n Format : AVC\n Format/Info : Advanced Video Codec\n Format profile : &lt;a class=&quot;__cf_email__&quot; href=&quot;/cdn-cgi/l/email-protection&quot; data-cfemail=&quot;763e1f111e363a425846&quot;&gt;[email&amp;#160;protected]&lt;/a&gt;&lt;script cf-hash='f9e31' type=&quot;text/javascript&quot;&gt;\n/* &lt;![CDATA[ */!function(){try{var t=&quot;currentScript&quot;in document?document.currentScript:function(){for(var t=document.getElementsByTagName(&quot;script&quot;),e=t.length;e--;)if(t[e].getAttribute(&quot;cf-hash&quot;))return t[e]}();if(t&amp;&amp;t.previousSibling){var e,r,n,i,c=t.previousSibling,a=c.getAttribute(&quot;data-cfemail&quot;);if(a){for(e=&quot;&quot;,r=parseInt(a.substr(0,2),16),n=2;a.length-n;n+=2)i=parseInt(a.substr(n,2),16)^r,e+=String.fromCharCode(i);e=document.createTextNode(e),c.parentNode.replaceChild(e,c)}}}catch(u){}}();/* ]]&gt; */&lt;/script&gt;\n Format settings, CABAC : Yes\n Format settings, ReFrames : 3 frames\n Codec ID : avc1\n Codec ID/Info : Advanced Video Coding\n Duration : 3h 55mn\n Bit rate mode : Variable\n Bit rate : 3 196 Kbps\n Maximum bit rate : 25.0 Mbps\n Width : 1 920 pixels\n Height : 800 pixels\n Display aspect ratio : 2.40:1\n Frame rate mode : Constant\n Frame rate : 23.976 fps\n Color space : YUV\n Chroma subsampling : 4:2:0\n Bit depth : 8 bits\n Scan type : Progressive\n Bits/(Pixel*Frame) : 0.087\n Stream size : 5.25 GiB (91%)\n \nAudio\n ID : 2\n Format : AAC\n Format/Info : Advanced Audio Codec\n Format profile : LC\n Codec ID : 40\n Duration : 3h 55mn\n Bit rate mode : Variable\n Bit rate : 317 Kbps\n Maximum bit rate : 335 Kbps\n Channel(s) : 6 channels\n Channel positions : Front: L C R, Side: L R, LFE\n Sampling rate : 48.0 KHz\n Compression mode : Lossy\n Stream size : 534 MiB (9%)\n \n[ The Return of the King (2003).mp4 ]\n \nFormat : MPEG-4\n Format profile : Base Media\n Codec ID : isom\n File size : 6.46 GiB\n Duration : 4h 23mn\n Overall bit rate mode : Variable\n Overall bit rate : 3 516 Kbps\n \nVideo\n ID : 1\n Format : AVC\n Format/Info : Advanced Video Codec\n Format profile : &lt;a class=&quot;__cf_email__&quot; href=&quot;/cdn-cgi/l/email-protection&quot; data-cfemail=&quot;94dcfdf3fcd4d8a0baa4&quot;&gt;[email&amp;#160;protected]&lt;/a&gt;&lt;script cf-hash='f9e31' type=&quot;text/javascript&quot;&gt;\n/* &lt;![CDATA[ */!function(){try{var t=&quot;currentScript&quot;in document?document.currentScript:function(){for(var t=document.getElementsByTagName(&quot;script&quot;),e=t.length;e--;)if(t[e].getAttribute(&quot;cf-hash&quot;))return t[e]}();if(t&amp;&amp;t.previousSibling){var e,r,n,i,c=t.previousSibling,a=c.getAttribute(&quot;data-cfemail&quot;);if(a){for(e=&quot;&quot;,r=parseInt(a.substr(0,2),16),n=2;a.length-n;n+=2)i=parseInt(a.substr(n,2),16)^r,e+=String.fromCharCode(i);e=document.createTextNode(e),c.parentNode.replaceChild(e,c)}}}catch(u){}}();/* ]]&gt; */&lt;/script&gt;\n Format settings, CABAC : Yes\n Format settings, ReFrames : 3 frames\n Codec ID : avc1\n Codec ID/Info : Advanced Video Coding\n Duration : 4h 23mn\n Bit rate mode : Variable\n Bit rate : 3 196 Kbps\n Maximum bit rate : 25.0 Mbps\n Width : 1 920 pixels\n Height : 800 pixels\n Display aspect ratio : 2.40:1\n Frame rate mode : Constant\n Frame rate : 23.976 fps\n Color space : YUV\n Chroma subsampling : 4:2:0\n Bit depth : 8 bits\n Scan type : Progressive\n Bits/(Pixel*Frame) : 0.087\n Stream size : 5.87 GiB (91%)\n \nAudio\n ID : 2\n Format : AAC\n Format/Info : Advanced Audio Codec\n Format profile : LC\n Codec ID : 40\n Duration : 4h 23mn\n Bit rate mode : Variable\n Bit rate : 317 Kbps\n Maximum bit rate : 335 Kbps\n Channel(s) : 6 channels\n Channel positions : Front: L C R, Side: L R, LFE\n Sampling rate : 48.0 KHz\n Compression mode : Lossy\n Stream size : 597 MiB (9%)\n \n[ The Hunt For Gollum (2009).mp4 ]\n \nFormat : MPEG-4\n Format profile : Base Media\n Codec ID : isom\n File size : 570 MiB\n Duration : 39mn 6s\n Overall bit rate mode : Variable\n Overall bit rate : 2 039 Kbps\n \nVideo\n ID : 1\n Format : AVC\n Format/Info : Advanced Video Codec\n Format profile : &lt;a class=&quot;__cf_email__&quot; href=&quot;/cdn-cgi/l/email-protection&quot; data-cfemail=&quot;0d45646a654d413e233c&quot;&gt;[email&amp;#160;protected]&lt;/a&gt;&lt;script cf-hash='f9e31' type=&quot;text/javascript&quot;&gt;\n/* &lt;![CDATA[ */!function(){try{var t=&quot;currentScript&quot;in document?document.currentScript:function(){for(var t=document.getElementsByTagName(&quot;script&quot;),e=t.length;e--;)if(t[e].getAttribute(&quot;cf-hash&quot;))return t[e]}();if(t&amp;&amp;t.previousSibling){var e,r,n,i,c=t.previousSibling,a=c.getAttribute(&quot;data-cfemail&quot;);if(a){for(e=&quot;&quot;,r=parseInt(a.substr(0,2),16),n=2;a.length-n;n+=2)i=parseInt(a.substr(n,2),16)^r,e+=String.fromCharCode(i);e=document.createTextNode(e),c.parentNode.replaceChild(e,c)}}}catch(u){}}();/* ]]&gt; */&lt;/script&gt;\n Format settings, CABAC : Yes\n Format settings, ReFrames : 3 frames\n Format settings, GOP : M=1, N=30\n Codec ID : avc1\n Codec ID/Info : Advanced Video Coding\n Duration : 39mn 6s\n Bit rate : 1 911 Kbps\n Maximum bit rate : 7 610 Kbps\n Width : 1 280 pixels\n Height : 720 pixels\n Display aspect ratio : 16:9\n Frame rate mode : Constant\n Frame rate : 25.000 fps\n Color space : YUV\n Chroma subsampling : 4:2:0\n Bit depth : 8 bits\n Scan type : Progressive\n Bits/(Pixel*Frame) : 0.083\n Stream size : 535 MiB (94%)\n \nAudio\n ID : 2\n Format : AAC\n Format/Info : Advanced Audio Codec\n Format profile : LC\n Codec ID : 40\n Duration : 39mn 6s\n Bit rate mode : Variable\n Bit rate : 126 Kbps\n Maximum bit rate : 248 Kbps\n Channel(s) : 2 channels\n Channel positions : Front: L R\n Sampling rate : 44.1 KHz\n Compression mode : Lossy\n Stream size : 35.1 MiB (6%)\n Language : English\n \n[ Born Of Hope_The Ring of Barahir (2009).mp4 ]\n \nFormat : MPEG-4\n Format profile : Base Media\n Codec ID : isom\n File size : 1.05 GiB\n Duration : 1h 11mn\n Overall bit rate mode : Variable\n Overall bit rate : 2 107 Kbps\n \nVideo\n ID : 1\n Format : AVC\n Format/Info : Advanced Video Codec\n Format profile : &lt;a class=&quot;__cf_email__&quot; href=&quot;/cdn-cgi/l/email-protection&quot; data-cfemail=&quot;3f775658577f730c110e&quot;&gt;[email&amp;#160;protected]&lt;/a&gt;&lt;script cf-hash='f9e31' type=&quot;text/javascript&quot;&gt;\n/* &lt;![CDATA[ */!function(){try{var t=&quot;currentScript&quot;in document?document.currentScript:function(){for(var t=document.getElementsByTagName(&quot;script&quot;),e=t.length;e--;)if(t[e].getAttribute(&quot;cf-hash&quot;))return t[e]}();if(t&amp;&amp;t.previousSibling){var e,r,n,i,c=t.previousSibling,a=c.getAttribute(&quot;data-cfemail&quot;);if(a){for(e=&quot;&quot;,r=parseInt(a.substr(0,2),16),n=2;a.length-n;n+=2)i=parseInt(a.substr(n,2),16)^r,e+=String.fromCharCode(i);e=document.createTextNode(e),c.parentNode.replaceChild(e,c)}}}catch(u){}}();/* ]]&gt; */&lt;/script&gt;\n Format settings, CABAC : Yes\n Format settings, ReFrames : 3 frames\n Format settings, GOP : M=1, N=30\n Codec ID : avc1\n Codec ID/Info : Advanced Video Coding\n Duration : 1h 11mn\n Bit rate : 1 979 Kbps\n Maximum bit rate : 5 646 Kbps\n Width : 1 280 pixels\n Height : 720 pixels\n Display aspect ratio : 16:9\n Frame rate mode : Constant\n Frame rate : 25.000 fps\n Color space : YUV\n Chroma subsampling : 4:2:0\n Bit depth : 8 bits\n Scan type : Progressive\n Bits/(Pixel*Frame) : 0.086\n Stream size : 1 011 MiB (94%)\n \nAudio\n ID : 2\n Format : AAC\n Format/Info : Advanced Audio Codec\n Format profile : LC\n Codec ID : 40\n Duration : 1h 11mn\n Bit rate mode : Variable\n Bit rate : 126 Kbps\n Maximum bit rate : 310 Kbps\n Channel(s) : 2 channels\n Channel positions : Front: L R\n Sampling rate : 44.1 KHz\n Compression mode : Lossy\n Stream size : 64.1 MiB (6%)\n Language : English","torrent":{"xt":"urn:btih:a0e2e641fd3f48089dfa3f2f03204c849d550837","amp;dn":"The+Lord+of+the+Rings+Complete+Collection+%281977%29-%282012%29","amp;tr":["udp%3A%2F%2Ftracker.openbittorrent.com%3A80","udp%3A%2F%2Fopen.demonii.com%3A1337","udp%3A%2F%2Ftracker.coppersurfer.tk%3A6969","udp%3A%2F%2Fexodus.desync.com%3A6969"],"infoHash":"a0e2e641fd3f48089dfa3f2f03204c849d550837","infoHashBuffer":{"type":"Buffer","data":[160,226,230,65,253,63,72,8,157,250,63,47,3,32,76,132,157,85,8,55]},"announce":[],"urlList":[]}}